<?xml version="1.0" encoding="utf-8"?>
<!-- Generator: Adobe Illustrator 18.1.1, SVG Export Plug-In . SVG Version: 6.00 Build 0)  -->
<svg version="1.1" id="Layer_1" xmlns="http://www.w3.org/2000/svg" xmlns:xlink="http://www.w3.org/1999/xlink" x="0px" y="0px"
	 width="334.441px" height="53.422px" viewBox="0 0 334.441 53.422" enable-background="new 0 0 334.441 53.422"
	 xml:space="preserve">
<g>
	<defs>
		<rect id="SVGID_1_" x="0" y="0" width="334.441" height="53.422"/>
	</defs>
	<clipPath id="SVGID_2_">
		<use xlink:href="#SVGID_1_"  overflow="visible"/>
	</clipPath>
	<path clip-path="url(#SVGID_2_)" fill="#E9711C" d="M20.715,23.391c10.948,0,24.15-2.576,24.15-13.124
		C44.866,2.793,37.236,0,30.265,0C19.618,0,0,5.926,0,26.959c0,10.555,8.034,16.643,20.778,16.643
		c13.474,0,23.266-8.768,26.261-20.535C39.127,36.715,29.067,40.963,20.86,40.963c-10.191,0-14.077-7.568-14.077-14.051
		c0-18.561,14.406-24.798,23.494-24.798c6.135,0,9.727,3.936,9.727,8.253c0,11.918-17.171,11.578-25.008,11.578
		c-0.803,0-3.274,0.019-3.759-0.003l-1.654,1.714c3.589,0.508,8.554,1.497,13.944,4.223c11.204,5.656,21.745,20.59,35.699,20.59
		c5.062,0,6.38-1.543,7.335-2.893c-6.834,4.354-18.286-3.197-24.459-9.039C37.02,31.731,32.531,26.278,20.715,23.391"/>
	<path clip-path="url(#SVGID_2_)" fill="#666666" d="M89.269,43.564c-0.423,0-0.636-0.164-0.794-0.547L81.59,28.506h-6.197
		c-0.211,0-0.316,0.11-0.316,0.33v14.182c0,0.328-0.213,0.547-0.532,0.547h-5.189c-0.319,0-0.53-0.219-0.53-0.547V6.879
		c0-0.33,0.211-0.549,0.53-0.549h13.928c6.62,0,11.492,4.545,11.492,11.117c0,4.873-2.701,8.651-6.833,10.238l7.575,15.167
		c0.211,0.385,0,0.713-0.371,0.713H89.269z M88.58,17.446c0-3.232-2.223-5.311-5.506-5.311h-7.68c-0.211,0-0.316,0.108-0.316,0.328
		v9.912c0,0.217,0.104,0.328,0.316,0.328h7.68C86.356,22.703,88.58,20.622,88.58,17.446"/>
	<path clip-path="url(#SVGID_2_)" fill="#666666" d="M101.048,6.879c0-0.33,0.211-0.549,0.53-0.549h21.865
		c0.317,0,0.529,0.219,0.529,0.549v4.709c0,0.329-0.212,0.548-0.529,0.548h-15.827c-0.212,0-0.318,0.108-0.318,0.328v9.089
		c0,0.219,0.106,0.328,0.318,0.328h12.726c0.317,0,0.53,0.22,0.53,0.547v4.709c0,0.329-0.213,0.548-0.53,0.548h-12.726
		c-0.212,0-0.318,0.11-0.318,0.329v9.418c0,0.219,0.106,0.328,0.318,0.328h15.827c0.317,0,0.529,0.22,0.529,0.549v4.709
		c0,0.328-0.212,0.547-0.529,0.547h-21.865c-0.319,0-0.53-0.219-0.53-0.547V6.879z"/>
	<path clip-path="url(#SVGID_2_)" fill="#666666" d="M129.803,6.879c0-0.33,0.212-0.549,0.529-0.549h5.191
		c0.317,0,0.53,0.219,0.53,0.549v30.553c0,0.219,0.106,0.328,0.317,0.328h14.722c0.318,0,0.531,0.22,0.531,0.549v4.709
		c0,0.328-0.213,0.547-0.531,0.547h-20.76c-0.317,0-0.529-0.219-0.529-0.547V6.879z"/>
	<path clip-path="url(#SVGID_2_)" fill="#666666" d="M195.535,24.947c0-6.461,0.423-8.926,1.006-10.787
		c1.747-5.529,5.878-8.377,11.758-8.377c5.879,0,9.532,3.012,11.279,6.899c0.107,0.274,0.107,0.548-0.211,0.712l-1.695,0.876
		c-0.265,0.109-0.529,0.055-0.688-0.219c-1.802-3.396-4.449-5.312-8.739-5.312c-4.449,0-7.468,2.192-8.792,6.299
		c-0.475,1.422-0.845,3.722-0.845,9.909s0.37,8.486,0.845,9.91c1.324,4.107,4.343,6.299,8.792,6.299
		c4.342,0,7.468-2.137,8.791-6.189c0.477-1.422,0.849-3.559,0.849-7.117c0-0.22-0.106-0.328-0.318-0.328h-8.155
		c-0.318,0-0.53-0.219-0.53-0.548v-1.807c0-0.329,0.212-0.548,0.53-0.548h10.962c0.317,0,0.53,0.219,0.53,0.548v2.243
		c0,3.725-0.423,6.572-0.954,8.271c-1.694,5.529-5.879,8.432-11.65,8.432c-5.88,0-10.011-2.848-11.758-8.379
		C195.958,33.873,195.535,31.408,195.535,24.947"/>
	<path clip-path="url(#SVGID_2_)" fill="#666666" d="M226.568,43.564c-0.317,0-0.53-0.219-0.53-0.547V17.994
		c0-0.329,0.213-0.548,0.53-0.548h1.801c0.316,0,0.529,0.219,0.529,0.548v3.338h0.052c0.953-2.572,3.231-4.434,6.779-4.434
		c2.013,0,3.866,0.712,5.084,1.807c0.265,0.164,0.317,0.438,0.107,0.713l-1.06,1.531c-0.212,0.274-0.479,0.274-0.795,0.11
		c-1.164-0.767-2.436-1.313-4.024-1.313c-4.449,0-6.144,3.996-6.144,8.815v14.456c0,0.328-0.213,0.547-0.529,0.547H226.568z"/>
	<path clip-path="url(#SVGID_2_)" fill="#666666" d="M243.461,37.322c-0.53-1.752-0.847-3.668-0.847-6.844
		c0-3.121,0.316-5.037,0.847-6.789c1.378-4.327,4.818-6.791,9.426-6.791c4.662,0,8.104,2.464,9.48,6.791
		c0.53,1.752,0.848,3.668,0.848,6.789c0,3.176-0.317,5.092-0.848,6.844c-1.377,4.326-4.818,6.791-9.48,6.791
		C248.279,44.113,244.839,41.648,243.461,37.322 M259.614,36.393c0.475-1.479,0.688-3.066,0.688-5.914
		c0-2.794-0.213-4.381-0.688-5.859c-1.007-3.121-3.442-4.873-6.728-4.873c-3.229,0-5.666,1.752-6.672,4.873
		c-0.477,1.479-0.688,3.065-0.688,5.859c0,2.848,0.212,4.436,0.688,5.914c1.006,3.121,3.442,4.873,6.672,4.873
		C256.172,41.266,258.607,39.514,259.614,36.393"/>
	<path clip-path="url(#SVGID_2_)" fill="#666666" d="M284.343,43.564c-0.317,0-0.528-0.219-0.528-0.547v-3.066h-0.053
		c-1.272,2.574-3.92,4.162-7.361,4.162c-5.615,0-8.74-3.616-8.74-9.913V17.994c0-0.329,0.213-0.548,0.53-0.548h1.801
		c0.317,0,0.529,0.219,0.529,0.548v15.44c0,5.257,2.118,7.831,6.515,7.831c3.812,0,6.779-2.74,6.779-7.284V17.994
		c0-0.329,0.211-0.548,0.528-0.548h1.802c0.317,0,0.53,0.219,0.53,0.548v25.023c0,0.328-0.213,0.547-0.53,0.547H284.343z"/>
	<path clip-path="url(#SVGID_2_)" fill="#666666" d="M292.71,53.422c-0.317,0-0.53-0.219-0.53-0.549V17.994
		c0-0.329,0.213-0.548,0.53-0.548h1.8c0.317,0,0.53,0.219,0.53,0.548v3.176h0.053c1.218-2.465,3.496-4.272,7.679-4.272
		c4.449,0,7.256,2.079,8.579,6.242c0.638,2.137,0.901,4.435,0.901,7.393c0,2.901-0.264,5.201-0.901,7.336
		c-1.323,4.164-4.13,6.242-8.579,6.242c-4.183,0-6.461-1.807-7.679-4.27h-0.053v13.031c0,0.33-0.213,0.549-0.53,0.549H292.71z
		 M308.65,36.664c0.529-1.643,0.688-3.832,0.688-6.131c0-2.355-0.158-4.545-0.688-6.188c-0.952-2.957-3.124-4.6-6.461-4.6
		c-3.178,0-5.507,1.533-6.461,4.6c-0.477,1.423-0.689,3.34-0.689,6.188c0,2.847,0.212,4.709,0.689,6.131
		c0.954,3.067,3.283,4.602,6.461,4.602C305.526,41.266,307.698,39.623,308.65,36.664"/>
	<path clip-path="url(#SVGID_2_)" fill="#666666" d="M177.521,43.607c-0.424,0-0.634-0.164-0.849-0.547l-7.254-12.649h-0.106
		l-7.307,12.649c-0.213,0.383-0.424,0.547-0.849,0.547h-5.72c-0.371,0-0.528-0.328-0.318-0.711l10.752-18.562l-9.957-17.248
		c-0.212-0.385-0.053-0.712,0.317-0.712h5.721c0.424,0,0.636,0.163,0.847,0.548l6.513,11.278h0.106l6.513-11.278
		c0.213-0.385,0.425-0.548,0.849-0.548h5.72c0.37,0,0.529,0.327,0.317,0.712l-9.956,17.248l10.751,18.562
		c0.211,0.383,0.052,0.711-0.319,0.711H177.521z"/>
	<path clip-path="url(#SVGID_2_)" fill="#666666" d="M315.92,19.013c-0.108,0-0.181-0.075-0.181-0.189V8.439
		c0-0.075-0.036-0.113-0.109-0.113h-3.202c-0.109,0-0.184-0.073-0.184-0.186v-1.6c0-0.111,0.074-0.186,0.184-0.186h8.746
		c0.111,0,0.183,0.075,0.183,0.186v1.6c0,0.113-0.071,0.186-0.183,0.186h-3.201c-0.073,0-0.109,0.038-0.109,0.113v10.385
		c0,0.113-0.071,0.189-0.18,0.189H315.92z"/>
	<path clip-path="url(#SVGID_2_)" fill="#666666" d="M323.53,6.54c0-0.112,0.071-0.186,0.178-0.186h1.604
		c0.163,0,0.252,0.056,0.307,0.186l3.367,7.8h0.07l3.315-7.8c0.052-0.13,0.144-0.186,0.305-0.186h1.583
		c0.11,0,0.182,0.074,0.182,0.186v12.286c0,0.111-0.071,0.186-0.182,0.186h-1.564c-0.109,0-0.18-0.075-0.18-0.186v-7.744h-0.073
		l-2.593,5.957c-0.071,0.168-0.18,0.242-0.343,0.242h-1.044c-0.16,0-0.27-0.074-0.343-0.242l-2.591-5.957h-0.072v7.744
		c0,0.111-0.072,0.186-0.181,0.186h-1.567c-0.106,0-0.178-0.075-0.178-0.186V6.54z"/>
</g>
</svg>
